# Blender v2.93.1 OBJ File: ''
# www.blender.org
mtllib gun.mtl
o Cube
v 0.249086 0.883576 -1.263643
v 0.249086 0.506194 -1.114741
v 0.249086 0.883576 1.114741
v 0.249086 0.506194 1.114741
v -0.249086 0.883576 -1.263643
v -0.249086 0.506194 -1.114741
v -0.249086 0.883576 1.114741
v -0.249086 0.506194 1.114741
v -0.249086 0.506194 0.556755
v 0.249086 0.883576 0.434749
v -0.249086 0.883576 0.434749
v 0.249086 0.506194 0.434749
v 0.249086 0.816558 -0.992735
v -0.249086 0.816558 1.114741
v 0.249086 0.816558 1.114741
v -0.249086 0.816558 -0.992735
v 0.249086 0.816558 0.434749
v -0.249086 0.816558 0.434749
v -0.150610 0.506194 -1.114741
v -0.150610 0.883576 1.114741
v -0.150610 0.506194 1.114741
v -0.150610 0.883576 -1.263643
v -0.150610 0.506194 0.532637
v -0.150610 0.883576 0.434749
v -0.150610 0.816558 -0.992735
v -0.150610 0.816558 1.228505
v 0.249086 0.581872 -1.084991
v 0.249086 0.581872 1.114741
v -0.249086 0.581872 -1.084991
v 0.249086 0.581872 0.434749
v -0.249086 0.581872 0.527005
v -0.249086 0.581872 1.114741
v -0.150610 0.581872 1.228505
v -0.150610 0.581872 -1.084991
v 0.174857 0.506194 1.114741
v 0.174857 0.883576 -1.263643
v 0.174857 0.883576 0.434749
v 0.174857 0.816558 -0.992735
v 0.174857 0.506194 -1.114741
v 0.174857 0.883576 1.114741
v 0.174857 0.506194 0.452928
v 0.174857 0.816558 1.228505
v 0.174857 0.581872 1.228505
v 0.174857 0.581872 -1.084991
vt 0.825581 0.673750
vt 0.875000 0.673750
vt 0.875000 0.750000
vt 0.825581 0.750000
vt 0.580603 0.950581
vt 0.625000 0.950581
vt 0.625000 1.000000
vt 0.580603 1.000000
vt 0.580603 0.076250
vt 0.625000 0.076250
vt 0.625000 0.250000
vt 0.580603 0.250000
vt 0.337749 0.673750
vt 0.375000 0.673750
vt 0.375000 0.750000
vt 0.337749 0.750000
vt 0.580603 0.673750
vt 0.625000 0.673750
vt 0.625000 0.750000
vt 0.580603 0.750000
vt 0.580603 0.462749
vt 0.625000 0.462749
vt 0.625000 0.500000
vt 0.580603 0.500000
vt 0.337749 0.500000
vt 0.375000 0.500000
vt 0.580603 0.000000
vt 0.625000 0.000000
vt 0.825581 0.500000
vt 0.875000 0.500000
vt 0.425133 0.000000
vt 0.425133 0.076250
vt 0.425133 0.500000
vt 0.425133 0.673750
vt 0.425133 0.462749
vt 0.425133 0.750000
vt 0.425133 0.250000
vt 0.425133 0.950581
vt 0.425133 1.000000
vt 0.425133 0.787251
vt 0.580603 0.787251
vt 0.580603 0.299419
vt 0.425133 0.299419
vt 0.662251 0.500000
vt 0.662251 0.673750
vt 0.125000 0.500000
vt 0.174419 0.500000
vt 0.174419 0.673750
vt 0.125000 0.673750
vt 0.625000 0.299419
vt 0.174419 0.750000
vt 0.125000 0.750000
vt 0.625000 0.787251
vt 0.662251 0.750000
vt 0.375000 0.250000
vt 0.375000 0.299419
vt 0.375000 0.787251
vt 0.375000 0.950581
vt 0.375000 1.000000
vt 0.375000 0.076250
vt 0.375000 0.462749
vt 0.375000 0.000000
vn 0.0000 1.0000 0.0000
vn -0.4030 0.5922 0.6977
vn -1.0000 -0.0000 0.0000
vn 0.0000 -1.0000 0.0000
vn 1.0000 0.0000 0.0000
vn 0.0000 -0.9707 -0.2401
vn 0.0000 0.3659 -0.9307
vn -0.7561 0.0000 0.6545
vn 0.0000 0.0000 1.0000
vn 0.0000 0.8616 0.5076
vn 0.0000 -0.8326 0.5539
vn -0.4192 -0.5455 0.7257
vn 0.5223 -0.5124 0.6817
vn 0.5044 0.5587 0.6583
vn 0.8375 0.0000 0.5465
usemtl Material
s off
f 24/1/1 11/2/1 7/3/1 20/4/1
f 26/5/2 20/6/2 7/7/2 14/8/2
f 18/9/3 11/10/3 5/11/3 16/12/3
f 41/13/4 12/14/4 4/15/4 35/16/4
f 17/17/5 10/18/5 3/19/5 15/20/5
f 38/21/6 36/22/6 1/23/6 13/24/6
f 13/24/5 1/23/5 10/18/5 17/17/5
f 39/25/4 2/26/4 12/14/4 41/13/4
f 14/27/3 7/28/3 11/10/3 18/9/3
f 22/29/1 5/30/1 11/2/1 24/1/1
f 32/31/3 14/27/3 18/9/3 31/32/3
f 27/33/5 13/24/5 17/17/5 30/34/5
f 44/35/7 38/21/7 13/24/7 27/33/7
f 30/34/5 17/17/5 15/20/5 28/36/5
f 31/32/3 18/9/3 16/12/3 29/37/3
f 33/38/8 26/5/8 14/8/8 32/39/8
f 43/40/9 42/41/9 26/5/9 33/38/9
f 29/37/7 16/12/7 25/42/7 34/43/7
f 36/44/1 22/29/1 24/1/1 37/45/1
f 6/46/4 19/47/4 23/48/4 9/49/4
f 16/12/6 5/11/6 22/50/6 25/42/6
f 9/49/4 23/48/4 21/51/4 8/52/4
f 42/41/10 40/53/10 20/6/10 26/5/10
f 37/45/1 24/1/1 20/4/1 40/54/1
f 6/55/7 29/37/7 34/43/7 19/56/7
f 35/57/11 43/40/11 33/38/11 21/58/11
f 21/58/12 33/38/12 32/39/12 8/59/12
f 9/60/3 31/32/3 29/37/3 6/55/3
f 12/14/5 30/34/5 28/36/5 4/15/5
f 39/61/7 44/35/7 27/33/7 2/26/7
f 2/26/5 27/33/5 30/34/5 12/14/5
f 8/62/3 32/31/3 31/32/3 9/60/3
f 19/56/7 34/43/7 44/35/7 39/61/7
f 4/15/13 28/36/13 43/40/13 35/57/13
f 10/18/1 37/45/1 40/54/1 3/19/1
f 15/20/14 3/19/14 40/53/14 42/41/14
f 1/23/1 36/44/1 37/45/1 10/18/1
f 28/36/15 15/20/15 42/41/15 43/40/15
f 34/43/7 25/42/7 38/21/7 44/35/7
f 19/47/4 39/25/4 41/13/4 23/48/4
f 25/42/6 22/50/6 36/22/6 38/21/6
f 23/48/4 41/13/4 35/16/4 21/51/4
o Cube.001_Cube.002
v -0.278011 -0.172835 -1.464800
v -0.258005 -0.182143 -0.941309
v -0.254388 0.557645 -1.104605
v -0.260093 0.548998 -0.557346
v 0.234382 -0.174615 -1.461517
v 0.254388 -0.183924 -0.938026
v 0.258005 0.555864 -1.101321
v 0.252301 0.547217 -0.554062
vt 0.375000 0.000000
vt 0.625000 0.000000
vt 0.625000 0.250000
vt 0.375000 0.250000
vt 0.625000 0.500000
vt 0.375000 0.500000
vt 0.625000 0.750000
vt 0.375000 0.750000
vt 0.625000 1.000000
vt 0.375000 1.000000
vt 0.125000 0.500000
vt 0.125000 0.750000
vt 0.875000 0.500000
vt 0.875000 0.750000
vn -0.9999 0.0079 0.0135
vn 0.0034 0.9999 0.0158
vn 0.9999 -0.0079 -0.0135
vn -0.0034 -0.9998 -0.0177
vn 0.0073 0.4421 -0.8970
vn -0.0073 -0.4649 0.8853
usemtl None
s off
f 45/63/16 46/64/16 48/65/16 47/66/16
f 47/66/17 48/65/17 52/67/17 51/68/17
f 51/68/18 52/67/18 50/69/18 49/70/18
f 49/70/19 50/69/19 46/71/19 45/72/19
f 47/73/20 51/68/20 49/70/20 45/74/20
f 52/67/21 48/75/21 46/76/21 50/69/21
o Cube.002_Cube.003
v -0.138501 0.359176 -0.420911
v -0.128070 0.347030 -0.239704
v -0.126785 0.588905 -0.309070
v -0.129119 0.576571 -0.119678
v 0.116353 0.358290 -0.419278
v 0.126785 0.346144 -0.238071
v 0.128070 0.588020 -0.307436
v 0.125735 0.575686 -0.118045
vt 0.375000 0.000000
vt 0.625000 0.000000
vt 0.625000 0.250000
vt 0.375000 0.250000
vt 0.625000 0.500000
vt 0.375000 0.500000
vt 0.625000 0.750000
vt 0.375000 0.750000
vt 0.625000 1.000000
vt 0.375000 1.000000
vt 0.125000 0.500000
vt 0.125000 0.750000
vt 0.875000 0.500000
vt 0.875000 0.750000
vn -0.9997 0.0118 0.0226
vn 0.0031 0.9979 0.0650
vn 0.9997 -0.0118 -0.0226
vn -0.0030 -0.9978 -0.0667
vn 0.0073 0.4374 -0.8992
vn -0.0073 -0.4634 0.8861
usemtl None
s off
f 53/77/22 54/78/22 56/79/22 55/80/22
f 55/80/23 56/79/23 60/81/23 59/82/23
f 59/82/24 60/81/24 58/83/24 57/84/24
f 57/84/25 58/83/25 54/85/25 53/86/25
f 55/87/26 59/82/26 57/84/26 53/88/26
f 60/81/27 56/89/27 54/90/27 58/83/27
o Cube.003_Cube.004
v -0.138501 0.308724 -0.609186
v -0.128070 0.207653 -0.458295
v -0.126785 0.451827 -0.397513
v -0.129119 0.346505 -0.239626
v 0.116353 0.307141 -0.608214
v 0.126785 0.206070 -0.457323
v 0.128070 0.450244 -0.396541
v 0.125735 0.344922 -0.238654
vt 0.375000 0.000000
vt 0.625000 0.000000
vt 0.625000 0.250000
vt 0.375000 0.250000
vt 0.625000 0.500000
vt 0.375000 0.500000
vt 0.625000 0.750000
vt 0.375000 0.750000
vt 0.625000 1.000000
vt 0.375000 1.000000
vt 0.125000 0.500000
vt 0.125000 0.750000
vt 0.875000 0.500000
vt 0.875000 0.750000
vn -0.9997 -0.0011 0.0255
vn 0.0031 0.8319 0.5550
vn 0.9997 0.0011 -0.0255
vn -0.0030 -0.8309 -0.5564
vn 0.0073 0.8282 -0.5603
vn -0.0073 -0.8442 0.5360
usemtl None
s off
f 61/91/28 62/92/28 64/93/28 63/94/28
f 63/94/29 64/93/29 68/95/29 67/96/29
f 67/96/30 68/95/30 66/97/30 65/98/30
f 65/98/31 66/97/31 62/99/31 61/100/31
f 63/101/32 67/96/32 65/98/32 61/102/32
f 68/95/33 64/103/33 62/104/33 66/97/33
o Cube.004_Cube.005
v -0.138501 0.366050 -0.788441
v -0.128070 0.201208 -0.712214
v -0.126785 0.378054 -0.533215
v -0.129119 0.205940 -0.453229
v 0.116353 0.364193 -0.788435
v 0.126785 0.199350 -0.712208
v 0.128070 0.376197 -0.533209
v 0.125735 0.204082 -0.453224
vt 0.375000 0.000000
vt 0.625000 0.000000
vt 0.625000 0.250000
vt 0.375000 0.250000
vt 0.625000 0.500000
vt 0.375000 0.500000
vt 0.625000 0.750000
vt 0.375000 0.750000
vt 0.625000 1.000000
vt 0.375000 1.000000
vt 0.125000 0.500000
vt 0.125000 0.750000
vt 0.875000 0.500000
vt 0.875000 0.750000
vn -0.9997 -0.0142 0.0212
vn 0.0031 0.4214 0.9069
vn 0.9997 0.0142 -0.0212
vn -0.0030 -0.4199 -0.9076
vn 0.0073 0.9989 -0.0473
vn -0.0073 -0.9998 0.0182
usemtl None
s off
f 69/105/34 70/106/34 72/107/34 71/108/34
f 71/108/35 72/107/35 76/109/35 75/110/35
f 75/110/36 76/109/36 74/111/36 73/112/36
f 73/112/37 74/111/37 70/113/37 69/114/37
f 71/115/38 75/110/38 73/112/38 69/116/38
f 76/109/39 72/117/39 70/118/39 74/111/39
